<?xml version="1.0" encoding="UTF-8"?>
<svg width="616px" height="691px" viewBox="0 0 616 691" version="1.1" xmlns="http://www.w3.org/2000/svg" xmlns:xlink="http://www.w3.org/1999/xlink">
    <!-- Generator: Sketch 62 (91390) - https://sketch.com -->
    <!--
        Changes needed after export from sketch:
        1) Add: <style>
        2) Update: <g id="react-container"
            With: transform="translate(86.000000, 13.000000)"
        3) Update: <title>Awesome Web React</title>
        4) Remove: <desc>
    -->
    <title>Awesome Web React</title>
    <style>    
        #react {
            animation: scale 4s linear infinite;
            transform-origin: center;
        }
        #glass-light-left,
        #glass-light-right {
            animation: glass-light 5s linear infinite;
        }
        @keyframes scale {
            0%, 100% { transform: scale3d(0.8, 0.8, 0.8); }
            50% { transform: scale3d(1, 1, 1); }
        }
        @keyframes glass-light {
            0%, 84%, 100% { opacity: 0; }
            85% { opacity: 1; transform: translateX(0px); }
            99% { transform: translateX(160px); }
        }
    </style>
    <g id="awesome-web-react" stroke="none" stroke-width="1" fill="none" fill-rule="evenodd">
        <g id="Artboard" transform="translate(-19.000000, -43.000000)">
            <polyline id="glass-frame" fill="#FC60A8" fill-rule="nonzero" transform="translate(325.500000, 196.000000) scale(-1, 1) translate(-325.500000, -196.000000) " points="618 265 468 127.100218 446.9 150.150327 571.9 265 79.2 265 204.2 150.050109 183.1 127 33.1 265 33 265"></polyline>
            <path d="M83.6913348,549 C87.6906512,549 90.9900872,550.4 93.7896086,553.2 C96.5891301,556 97.9888908,559.4 97.9888908,563.3 L97.9888908,612.9 L47.297556,612.9 C43.2982396,612.9 39.9988036,611.5 37.1992822,608.7 C34.3997607,605.9 33,602.5 33,598.6 L33,575 L86.0909246,575 L86.0909246,563.3 C86.0909246,562.6 85.8909588,562.1 85.3910443,561.6 C84.8911297,561.1 84.3912152,560.9 83.6913348,560.9 L33,560.9 L33,549 L83.6913348,549 Z M86.0909246,601 L86.0909246,586.9 L44.8979662,586.9 L44.8979662,598.6 C44.8979662,599.3 45.097932,599.8 45.5978465,600.3 C46.0977611,600.8 46.5976756,601 47.297556,601 L86.0909246,601 L86.0909246,601 Z M200.771321,549 L213.469151,549 L189.473252,612.9 L179.77491,612.9 L158.278585,565.4 L137.982054,612.9 L137.782089,612.8 L137.882071,612.9 L128.283712,612.9 L103.188002,549 L115.785849,549 L133.082892,591.4 L151.479747,549 L165.077423,549 L184.57409,591.4 L200.771321,549 Z M267.959836,549 C271.959152,549 275.258588,550.4 278.05811,553.2 C280.857631,556 282.257392,559.4 282.257392,563.3 L282.257392,586.9 L229.166467,586.9 L229.166467,598.6 C229.166467,599.3 229.366433,599.8 229.866348,600.3 C230.366262,600.8 230.866177,601 231.566057,601 L282.257392,601 L282.257392,612.9 L231.566057,612.9 C227.566741,612.9 224.267305,611.5 221.467783,608.7 C218.668262,605.9 217.268501,602.5 217.268501,598.6 L217.268501,563.3 C217.268501,559.3 218.668262,556 221.467783,553.2 C224.267305,550.4 227.666724,549 231.566057,549 L267.959836,549 L267.959836,549 Z M229.166467,575 L270.359426,575 L270.359426,563.3 C270.359426,562.6 270.15946,562.1 269.659545,561.6 C269.159631,561.1 268.659716,560.9 267.959836,560.9 L231.566057,560.9 C230.866177,560.9 230.366262,561.1 229.866348,561.6 C229.366433,562.1 229.166467,562.6 229.166467,563.3 L229.166467,575 L229.166467,575 Z M358.14442,563.4 L358.14442,565.8 L346.246454,565.8 L346.246454,563.4 C346.246454,562.7 346.046488,562.2 345.546573,561.7 C345.046659,561.2 344.546744,561 343.846864,561 L307.453085,561 C306.753205,561 306.25329,561.2 305.753375,561.7 C305.253461,562.2 305.053495,562.7 305.053495,563.4 L305.053495,572.7 C305.053495,573.4 305.253461,573.9 305.753375,574.4 C306.25329,574.9 306.753205,575.1 307.453085,575.1 L343.846864,575.1 C347.84618,575.1 351.145616,576.5 353.945138,579.3 C356.744659,582.1 358.14442,585.5 358.14442,589.4 L358.14442,598.7 C358.14442,602.7 356.744659,606 353.945138,608.8 C351.145616,611.6 347.746197,613 343.846864,613 L307.453085,613 C303.453769,613 300.154333,611.6 297.354811,608.8 C294.55529,606 293.155529,602.6 293.155529,598.7 L293.155529,596.3 L305.053495,596.3 L305.053495,598.7 C305.053495,599.4 305.253461,599.9 305.753375,600.4 C306.25329,600.9 306.753205,601.1 307.453085,601.1 L343.846864,601.1 C344.546744,601.1 345.046659,600.9 345.546573,600.4 C346.046488,599.9 346.246454,599.4 346.246454,598.7 L346.246454,589.4 C346.246454,588.7 346.046488,588.2 345.546573,587.7 C345.046659,587.2 344.546744,587 343.846864,587 L307.453085,587 C303.453769,587 300.154333,585.6 297.354811,582.8 C294.55529,580 293.155529,576.6 293.155529,572.7 L293.155529,563.4 C293.155529,559.4 294.55529,556.1 297.354811,553.3 C300.154333,550.5 303.553751,549.1 307.453085,549.1 L343.846864,549.1 C347.84618,549.1 351.145616,550.5 353.945138,553.3 C356.744659,556 358.14442,559.4 358.14442,563.4 Z M383.340113,549 L419.733892,549 C423.733208,549 427.032644,550.4 429.832165,553.2 C432.631687,556 434.031448,559.4 434.031448,563.3 L434.031448,598.6 C434.031448,602.6 432.631687,605.9 429.832165,608.7 C427.032644,611.5 423.633225,612.9 419.733892,612.9 L383.340113,612.9 C379.340796,612.9 376.04136,611.5 373.241839,608.7 C370.442318,605.9 369.042557,602.5 369.042557,598.6 L369.042557,563.3 C369.042557,559.3 370.442318,556 373.241839,553.2 C376.04136,550.4 379.440779,549 383.340113,549 L383.340113,549 Z M419.733892,560.9 L383.340113,560.9 C382.640232,560.9 382.140318,561.1 381.640403,561.6 C381.140489,562.1 380.940523,562.6 380.940523,563.3 L380.940523,598.6 C380.940523,599.3 381.140489,599.8 381.640403,600.3 C382.140318,600.8 382.640232,601 383.340113,601 L419.733892,601 C420.433772,601 420.933687,600.8 421.433601,600.3 C421.933516,599.8 422.133481,599.3 422.133481,598.6 L422.133481,563.3 C422.133481,562.6 421.933516,562.1 421.433601,561.6 C420.933687,561.2 420.433772,560.9 419.733892,560.9 Z M527.215519,549 C531.214835,549 534.514271,550.4 537.313793,553.2 C540.113314,556 541.513075,559.4 541.513075,563.3 L541.513075,612.9 L529.715091,612.9 L529.715091,563.3 C529.715091,562.6 529.515126,562.1 529.015211,561.6 C528.515297,561.1 527.915399,560.9 527.215519,560.9 L502.019826,560.9 C501.319945,560.9 500.820031,561.1 500.320116,561.6 C499.820202,562.1 499.620236,562.6 499.620236,563.3 L499.620236,612.9 L487.72227,612.9 L487.72227,563.3 C487.72227,562.6 487.522304,562.1 487.022389,561.6 C486.522475,561.1 486.02256,560.9 485.32268,560.9 L460.027004,560.9 C459.327124,560.9 458.827209,561.1 458.327294,561.6 C457.82738,562.1 457.627414,562.6 457.627414,563.3 L457.627414,612.9 L445.729448,612.9 L445.729448,549 L527.215519,549 Z M603.702444,549 C607.70176,549 611.001196,550.4 613.800718,553.2 C616.600239,556 618,559.4 618,563.3 L618,586.9 L564.909075,586.9 L564.909075,598.6 C564.909075,599.3 565.109041,599.8 565.608956,600.3 C566.10887,600.8 566.608785,601 567.308665,601 L618,601 L618,612.9 L567.308665,612.9 C563.309349,612.9 560.009913,611.5 557.210391,608.7 C554.41087,605.9 553.011109,602.5 553.011109,598.6 L553.011109,563.3 C553.011109,559.3 554.41087,556 557.210391,553.2 C560.009913,550.4 563.409332,549 567.308665,549 L603.702444,549 L603.702444,549 Z M564.909075,575 L606.102034,575 L606.102034,563.3 C606.102034,562.6 605.902068,562.1 605.402153,561.6 C604.902239,561.1 604.402324,560.9 603.702444,560.9 L567.308665,560.9 C566.608785,560.9 566.10887,561.1 565.608956,561.6 C565.109041,562.1 564.909075,562.6 564.909075,563.3 L564.909075,575 L564.909075,575 Z" id="awesome" fill="#494368" fill-rule="nonzero"></path>
            <g id="react-container" transform="translate(86.000000, 13.000000)">
                <rect id="Rectangle" x="0" y="6" width="504" height="492"></rect>
                <g id="react" transform="translate(14.000000, 0.000000)">
                    <g id="Group" stroke="#61DAFB" stroke-width="20">
                        <ellipse id="Oval-Middle" cx="238" cy="252" rx="238" ry="91.0043123"></ellipse>
                        <ellipse id="Oval-Left" transform="translate(238.000000, 252.000000) rotate(60.000000) translate(-238.000000, -252.000000) " cx="238" cy="252" rx="238.258478" ry="90.9057487"></ellipse>
                        <ellipse id="Oval-Right" transform="translate(238.000000, 252.000000) rotate(120.000000) translate(-238.000000, -252.000000) " cx="238" cy="252" rx="238.258478" ry="90.9057487"></ellipse>
                    </g>
                    <ellipse id="Oval-Center" fill="#61DAFB" fill-rule="nonzero" cx="240" cy="249" rx="43" ry="44"></ellipse>
                </g>
            </g>
            <path d="M618,265 L571.9,265 L79.2,265 L33,265 L33,355.645064 C33,396.62023 72.5,430 121,430 L213.5,430 C262,430 301.5,396.62023 301.5,355.645064 L301.5,296.081163 L349.5,296.081163 L349.5,355.645064 C349.5,396.62023 389,430 437.5,430 L530,430 C578.5,430 618,396.62023 618,355.645064 L618,265 Z" id="glasses" fill="#FC60A8" fill-rule="nonzero" transform="translate(325.500000, 347.500000) scale(-1, 1) translate(-325.500000, -347.500000) "></path>
            <path d="M54.5,734 L54.39,733.89 L54.61,734 L74.85,686.59 L96.3,734 L105.98,734 L129.96,670.2 L117.31,670.2 L101.14,712.55 L81.67,670.2 L68.14,670.2 L49.77,712.55 L32.5,670.2 L19.85,670.2 L44.93,734 L54.5,734 Z M198.71,734 L198.71,722.12 L148.11,722.12 C146.79,722.12 145.69,721.02 145.69,719.7 L145.69,708.04 L198.71,708.04 L198.71,684.5 C198.71,676.58 192.33,670.2 184.41,670.2 L148.11,670.2 C140.19,670.2 133.81,676.58 133.81,684.5 L133.81,719.7 C133.81,727.62 140.19,734 148.11,734 L198.71,734 Z M186.83,696.16 L145.69,696.16 L145.69,684.5 C145.69,683.18 146.79,682.08 148.11,682.08 L184.41,682.08 C185.73,682.08 186.83,683.18 186.83,684.5 L186.83,696.16 Z M260.86,734 C268.78,734 275.16,727.62 275.16,719.7 L275.16,684.5 C275.16,676.58 268.78,670.2 260.86,670.2 L222.14,670.2 L222.14,649.3 L210.26,649.3 L210.26,734 L260.86,734 Z M260.86,722.12 L224.56,722.12 C223.24,722.12 222.14,721.02 222.14,719.7 L222.14,684.5 C222.14,683.18 223.24,682.08 224.56,682.08 L260.86,682.08 C262.18,682.08 263.28,683.18 263.28,684.5 L263.28,719.7 C263.28,721.02 262.18,722.12 260.86,722.12 Z M327.19,734 L327.19,684.5 C327.19,683.18 328.29,682.08 329.61,682.08 L365.25,682.08 L365.25,670.2 L329.61,670.2 C321.69,670.2 315.31,676.58 315.31,684.5 L315.31,734 L327.19,734 Z M436.42,734 L436.42,722.12 L385.82,722.12 C384.5,722.12 383.4,721.02 383.4,719.7 L383.4,708.04 L436.42,708.04 L436.42,684.5 C436.42,676.58 430.04,670.2 422.12,670.2 L385.82,670.2 C377.9,670.2 371.52,676.58 371.52,684.5 L371.52,719.7 C371.52,727.62 377.9,734 385.82,734 L436.42,734 Z M424.54,696.16 L383.4,696.16 L383.4,684.5 C383.4,683.18 384.5,682.08 385.82,682.08 L422.12,682.08 C423.44,682.08 424.54,683.18 424.54,684.5 L424.54,696.16 Z M512.65,734 L512.65,684.5 C512.65,676.58 506.27,670.2 498.35,670.2 L447.75,670.2 L447.75,682.08 L498.35,682.08 C499.67,682.08 500.77,683.18 500.77,684.5 L500.77,696.16 L447.75,696.16 L447.75,719.7 C447.75,727.62 454.13,734 462.05,734 L512.65,734 Z M500.77,722.12 L462.05,722.12 C460.73,722.12 459.63,721.02 459.63,719.7 L459.63,708.04 L500.77,708.04 L500.77,722.12 Z M587.23,734 L587.23,722.12 L536.63,722.12 C535.31,722.12 534.21,721.02 534.21,719.7 L534.21,684.5 C534.21,683.18 535.31,682.08 536.63,682.08 L587.01,682.08 L587.01,670.2 L536.63,670.2 C528.71,670.2 522.33,676.58 522.33,684.5 L522.33,719.7 C522.33,727.62 528.71,734 536.63,734 L587.23,734 Z M634.86,734 L634.86,722.12 L611.1,722.12 C609.78,722.12 608.68,721.02 608.68,719.7 L608.68,682.08 L634.86,682.08 L634.86,670.2 L608.68,670.2 L608.68,649.3 L596.8,649.3 L596.8,719.7 C596.8,727.62 603.18,734 611.1,734 L634.86,734 Z" id="webreact" fill="#494368" fill-rule="nonzero"></path>
            <line x1="573" y1="265" x2="615" y2="265" id="Line-Right" stroke="#FC60A8" stroke-width="2" stroke-linecap="square"></line>
            <line x1="36" y1="265" x2="78" y2="265" id="Line-Left" stroke="#FC60A8" stroke-width="2" stroke-linecap="square"></line>
            <path d="M83,298 L85,298 L85,368 C85,368.552285 84.5522847,369 84,369 C83.4477153,369 83,368.552285 83,368 L83,298 L83,298 Z" id="glass-light-left" stroke="#D8D8D8" stroke-width="30"></path>
            <path d="M401,298 L403,298 L403,368 C403,368.552285 402.552285,369 402,369 C401.447715,369 401,368.552285 401,368 L401,298 L401,298 Z" id="glass-light-right" stroke="#D8D8D8" stroke-width="30"></path>
        </g>
    </g>
</svg>